<?xml version="1.0" standalone="no"?>
<svg version="1.1" id="Layer_1" xmlns="http://www.w3.org/2000/svg" xmlns:xlink="http://www.w3.org/1999/xlink" x="0px" y="0px" width="595.28px" height="595.28px" viewBox="0 0 595.28 595.28" enable-background="new 0 0 595.28 595.28" xml:space="preserve">
<path id="color_x5F_2" fill="#FBC02D" d="M295.318,359.318c0.016,0.13,0.044,0.259,0.063,0.389
	c-0.522,0.317-1.207,0.732-2.027,1.227C294.01,360.398,294.669,359.866,295.318,359.318z M435.585,352.046
	c1.175-1.922,2.515-3.677,3.927-5.359c-0.359,0.009-0.689-0.064-0.905-0.257c-7.56-6.748-14.424-14.266-21.825-21.188
	c-8.094-7.569-16.907-16.184-27.254-20.604c-2.961-1.265-5.748-1.77-8.373-1.18c-2.398,1.519-5.258,3.848-8.124,6.079
	c-1.396,1.624-2.782,3.259-4.424,4.611c-4.727,3.894-8.749,1.752-11.942-1.853c-3.115,6.764-11.684,6.136-18.475,5.216
	c-0.681,0.286-1.522,0.276-1.814-0.259c-1.626-2.979-3.519-5.396-5.749-7.284c-0.378-0.306-0.764-0.609-1.156-0.91
	c-2.979-2.165-6.53-3.475-10.833-3.938c-0.896-0.097-1.81-0.171-2.731-0.236c-0.513,0.209-1.083,0.369-1.329,0.345
	c-3.077-0.3-5.934-0.163-8.627,0.307c-1.628,0.375-3.483,0.856-5.431,1.458c-7.515,2.738-13.796,8.032-20.161,13.442
	c-0.119,0.141-0.269,0.268-0.439,0.373c-2.092,1.778-4.197,3.563-6.363,5.266c-7.516,5.912-15.893,9.655-24.744,13.036
	c0.982,1.467,1.92,2.962,2.803,4.485c0.337,0.509,0.66,1.033,0.959,1.581c0.057,0.104,0.088,0.205,0.106,0.305
	c5.375,9.939,8.241,20.947,5.71,32.34c0.169-0.036,0.339-0.067,0.509-0.106c13.368-3.105,26.028-12.029,36.282-20.938
	c0.027-2.309,0.484-4.648,1.465-6.98c0.331-0.787,3.123-1.083,2.867-0.475c-4.082,9.706,1.23,21.555,10.007,26.881
	c7.635,4.633,15.81,8.393,22.929,13.95c5.912,4.616,12.575,10.098,16.505,16.627c0.749,1.245,0.501,2.095-0.187,2.521
	c2.254,4.723,9.688,5.774,14.328,6.266c7.023,0.745,14.324,0.738,21.354,0.104c19.125-1.726,35.939-8.974,51.001-20.625
	c-10.188-6.272-19.442-14.314-28.351-22.201c-8.049-7.127-16.429-14.375-23.338-22.65c-0.938-1.124,1.818-2.271,2.654-1.27
	c6.301,7.545,13.871,14.208,21.192,20.726c7.675,6.832,15.527,13.648,23.927,19.617c-6.221-11.134-1.486-25.679,3.775-36.902
	C435.363,352.247,435.461,352.141,435.585,352.046z"></path>
<path id="color_x5F_1" d="M277.982,247.807c-1.824,0.494-3.097,1.923-3.586,3.731c-0.329,1.213-3.289,1.577-2.93,0.247
	c0.807-2.977,3.05-5.062,6.01-5.865c0.539-0.146,1.518-0.131,1.702,0.555C279.363,247.164,278.521,247.661,277.982,247.807z
	 M274.405,258.769c-0.001-1.603-2.948-1.231-2.947,0.179c0.001,1.545,0.151,3.02,0.624,4.497c0.455,1.42,3.349,0.629,2.898-0.776
	C274.565,261.373,274.406,260.122,274.405,258.769z M325.84,285.217c1.765,3.224,2.178,7.635-2.168,8.867
	c-3.876,1.099-7.689-1.206-9.486-4.608c-0.564-1.07,1.145-1.958,2.126-1.67c2.452-0.421,5.089-0.596,6.992-2.365
	C323.811,284.971,325.35,284.323,325.84,285.217z M323.734,287.694c-1.852,1.044-3.877,1.468-6.036,1.868
	c1.211,1.619,3.018,3.021,5.071,2.701C324.877,291.934,324.399,289.428,323.734,287.694z M303.161,286.086
	c-2.831-0.648-2.748-3.352-2.374-5.752c0.226-1.443-2.732-1.045-2.932,0.232c-0.507,3.243-0.056,6.6,3.624,7.443
	c0.722,0.165,1.536,0.038,2.05-0.549C303.936,286.995,303.835,286.24,303.161,286.086z M503.428,350.704
	c-9.9,3.556-21.646,4.405-32.711,2.431c-1.818,6.571-3.147,13.261-4.529,19.977c-1.352,6.576-2.672,13.529-6.371,19.254
	c-5.186,8.027-14.233,8.6-21.827,4.225c-0.426-0.245-0.839-0.516-1.262-0.768c-15.228,11.465-32.651,19.09-51.832,20.821
	c-7.957,0.718-16.235,1.005-24.188,0.024c-5.383-0.664-14.602-1.905-15.455-8.682c-0.029-0.234,0.252-0.453,0.648-0.624
	c-0.469-0.72-0.967-1.419-1.511-2.086c-2.176-2.668-4.532-5.199-7.042-7.558c-3.16-2.971-6.456-5.839-10.025-8.315
	c-3.462-2.402-7.402-4.121-10.754-6.647c-5.682-4.283-12.165-5.862-16.505-11.979c-2.428-3.423-4.126-7.178-4.683-11.068
	c-0.019-0.13-0.047-0.259-0.063-0.389c-0.649,0.548-1.309,1.08-1.965,1.616c-3.527,2.882-7.166,5.583-11.142,7.914
	c-7.419,4.352-15.585,9.34-24.187,10.798c-13.938,2.363-27.589-3.885-38.631-11.928c-3.846-2.8-7.521-5.847-11.052-9.06
	c-10.004,6.019-21.171,10.169-32.635,13.149c-13.818,3.592-27.749,5.616-41.969,3.969c-14.222-1.647-28.435-5.505-41.198-12.068
	c-13.902-7.148-26.175-17.51-34.417-30.812c-2.396-0.175-4.708-1.861-4.54-4.491c0.057-0.885,0.365-1.65,0.827-2.294
	c-8.848-18.22-11.471-39.739-8.2-59.658c7.484-45.586,43.134-77.86,84.354-94.709c0.64-0.262,3.405-0.423,1.646,0.296
	c-41.868,17.113-78.854,51.441-83.757,98.511c-1.877,18.022,0.387,37.314,8.332,53.804c0.55-0.195,1.138-0.313,1.742-0.333
	c0.068-0.002,0.127,0.004,0.19,0.007c0.359-0.293,0.85-0.476,1.354-0.383c2.403,0.443,4.755,2.351,4.031,5.076
	c-0.436,1.641-1.507,2.884-2.914,3.575c8.669,13.67,21.233,24.329,35.864,31.331c13.066,6.253,27.371,10.104,41.807,11.351
	c18.889,1.632,38.542-3.035,55.815-10.464c4.528-1.948,8.729-4.22,12.665-6.76c-6.89-6.391-13.164-13.479-18.752-20.977
	c-0.395-0.529-1.793-2.22-3.292-4.274c-0.151,0.31-0.267,0.63-0.28,0.934c-0.042,0.937-2.924,1.341-2.898,0.776
	c0.045-0.997,0.65-2.011,1.325-2.718c0.206-0.217,0.491-0.37,0.796-0.484c-1.921-2.799-3.652-5.89-3.306-7.606
	c-0.392,0.125-0.759,0.203-0.961,0.172c-8.622-1.333-18.704-5.225-20.551-14.734c-3.146,0.398-6.352,0.467-9.568,0.156
	c-9.115-0.881-19.443-4.229-25.568-11.45c-6.073-7.16-8.238-17.189-7.467-26.427c1.711-20.478,19.569-36.014,39.733-37.038
	c1.945-0.099-0.139,1.512-1.148,1.563c-22.108,1.122-38.106,21.756-35.428,43.28c0.969,7.783,3.725,15.477,10.098,20.476
	c6.797,5.331,15.863,8.255,24.545,8.218c-2.009-0.922-3.646-2.572-4.462-5.111c-1.731-5.383,1.336-9.946,6.315-11.6
	c0.573-0.947,1.443-1.774,2.662-2.425c-0.729-1.038-1.353-2.099-1.827-3.173c-0.759,0.128-1.522,0.198-2.288,0.191
	c-12.96-0.104-17.756-14.603-9.198-23.54c0.679-0.709,3.518-0.734,2.332,0.505c-6.173,6.446-5.001,19.407,5.272,21.132
	c1.111,0.187,2.209,0.189,3.277,0.048c-0.472-1.668-0.537-3.358-0.011-5.039c1.392-4.44,5.938-2.312,8.87-0.243
	c3.898-4.832,5.074-11.885,0.42-16.725c-0.785-0.816,1.969-1.893,2.688-1.145c5.527,5.747,3.521,13.758-1.461,19.151
	c5.806,4.935,11.151,10.449,16.73,15.666c6.298-6.173,10.67-14.267,11.778-23.353c1.149-9.421-0.207-20.714-7.378-27.651
	c-7.088-6.858-16.717-9.153-26.338-9.264c-1.957-0.022,0.114-1.575,1.148-1.563c3.585,0.041,7.225,0.268,10.733,1.047
	c9.319,2.071,18.522,7.057,22.324,16.333c4.067,9.926,3.759,22.093-0.801,31.821c-2.467,5.264-5.94,9.953-10.118,13.872
	c0.471,0.433,0.939,0.869,1.415,1.295c6.671,5.987,13.402,11.913,20.256,17.691c7.595,5.731,16.339,10.282,24.799,14.19
	c0.776,0.359,1.56,0.721,2.344,1.085c2.175-3.26,4.22-6.669,6.145-10.224c6.105-11.278,12.044-24.92,13.442-38.481
	c-0.38,0.151-0.797,0.233-1.146,0.233c-0.199,0-0.398,0-0.599,0c-0.353,0-1.181-0.138-0.734-0.663
	c0.425-0.5,1.295-0.741,1.926-0.741c0.199,0,0.399,0,0.599,0c0.02,0,0.045,0.002,0.068,0.003c0.576-6.885-0.059-13.729-2.468-20.216
	c-1.284,0.891-2.849,1.407-4.562,1.431c-3.594,0.051-7.254-2.47-7.005-6.377c0.231-3.647,3.236-5.967,6.757-6.089
	c0.217-0.008,0.397,0.017,0.557,0.06c0.353-0.438,0.976-0.763,1.617-0.645c3.461,0.638,6.701,3.38,5.671,7.263
	c-0.19,0.719-0.487,1.366-0.839,1.968c0.057,0.033,0.103,0.072,0.125,0.126c3.648,8.739,3.762,18.481,2.033,27.693
	c-3.013,16.057-10.09,31.924-19.587,45.605c3.795,1.824,7.522,3.849,10.688,6.505c0.475-0.153,0.999-0.161,1.368,0.044
	c6.486-2.455,13.007-5.048,18.726-9.03c3.632-2.529,6.858-5.503,10.123-8.438c-0.252-0.158-0.552-0.357-0.889-0.598
	c-8.546-3.37-11.096-13.366-10.609-22.208c0.371-6.722,2.1-17.403,8.023-22.301c-2.794-0.105-5.32-1.33-7.342-4.908
	c-2.879-5.095-3.256-15.285-1.309-20.804c2.428-6.881,9.768-10.653,16.709-10.988c0.137-0.006,0.258-0.003,0.368,0.006
	c0.118-0.006,0.229-0.002,0.325,0.022c0.607,0.154,1.218,0.277,1.826,0.418c1.23-11.756,8.244-19.75,19.784-23.363
	c13.65-4.273,30.108-5.083,43.381,0.99c9.969,4.562,18.095,12.478,22.589,22.528c2.91,6.507,5.546,15.244,2.905,22.285
	c-0.058,0.155-0.209,0.293-0.411,0.411c1.662,2.213,0.648,5.713-0.262,8.175c7.654,4.127,17.027,4.849,24.047,10.185
	c9.332,7.093,9.861,19.127,8.877,29.92c-0.019,0.202-0.107,0.38-0.234,0.536c13.156,9.887,24.017,22.872,36.201,33.8
	c1.191-1.356,2.4-2.694,3.582-4.059c-13.078-12.686-15.49-35.162-8.094-51.427c8.245-18.13,26.43-30.468,46.331-31.401
	c0.367-0.017,0.59,0.026,0.704,0.108c9.521,1.805,19.195,5.596,27.355,10.743c14.912,9.406,22.895,23.212,21.522,41.083
	C531.004,328.041,520.938,344.414,503.428,350.704z M251.543,255.86c0.175-2.49-1.442-4.091-3.816-4.529
	c-0.061-0.011-0.107-0.029-0.161-0.043c-0.248,0.355-0.684,0.636-1.265,0.656c-5.466,0.191-4.121,8.394,1.154,7.967
	C249.606,259.738,251.387,258.07,251.543,255.86z M61.236,328.454c0.095-1.342-0.701-2.238-1.947-2.539
	c-0.25,0.201-0.582,0.341-0.982,0.354c-0.195,0.007-0.369,0.037-0.529,0.082c0.452,0.875,0.907,1.748,1.394,2.604
	c0.274,0.485,0.568,0.956,0.853,1.433C60.71,330.012,61.178,329.291,61.236,328.454z M341.619,267.146
	c8.98,2.373,18.801,0.872,27.928,2.673c0.709-2.035,1.389-4.839-0.019-6.486c-0.045,0.029-0.459-0.157-1.114-0.194
	c-3.375-0.189-6.75-0.379-10.125-0.568c-5.471-0.307-10.941-0.614-16.413-0.921c0.143,1.365,0.144,2.732-0.021,4.063
	C341.797,266.192,341.713,266.669,341.619,267.146z M340.858,269.962c0.521-0.184,1.07-0.34,1.63-0.48
	c-0.463-0.086-0.926-0.173-1.385-0.276C341.026,269.459,340.945,269.711,340.858,269.962z M340.055,271.973
	c-3.594,7.875-11.723,13.751-20.525,10.395c-0.23-0.088-0.285-0.21-0.232-0.346c-2.328,0.414-4.859,0.266-7.546-0.619
	c-7.53-2.478-14.333-8.793-22.478-8.74c0.549,6.151,0.771,12.687,3.004,18.478c3.181,8.248,9.564,10.363,17.877,11.146
	c5.631,0.53,11.866,0.338,17.188,2.529c5.407,2.225,8.914,6.103,11.69,11.187c6.106,0.887,13.533,2.296,15.462-5.269
	c0.05-0.197,0.249-0.372,0.516-0.514c-0.504-0.696-0.983-1.41-1.435-2.12c-4.973-6.327-8.975-14.563-11.323-21.864
	c-0.251-0.781,1.046-1.32,1.606-1.342c11.364-0.445,9.627-18.334-2.771-13.052C340.74,271.99,340.377,272.021,340.055,271.973z
	 M332.546,249.522c-1.747-1.57-3.846-2.607-6.304-2.735c3.349,1.984,5.965,5.024,7.047,9.099
	c2.576,9.698-2.345,21.708-11.104,25.296c10.416,3.63,18.168-10.261,16.625-19.125c-0.698-4.013-2.558-8.772-5.606-11.903
	c-0.159-0.06-0.298-0.148-0.397-0.276C332.716,249.761,332.635,249.64,332.546,249.522z M312.559,243.537
	c1.969,0.209,3.938,0.423,5.906,0.662c1.945,0.236,3.84,0.74,5.604,1.49c0.217-0.106,0.458-0.186,0.705-0.219
	c1.876-0.253,3.654-0.091,5.309,0.389c-1.738-2.891-3.186-5.966-4.543-9.053C321.749,239.675,317.251,242.162,312.559,243.537z
	 M277.645,273.784c0.12-0.032,0.235-0.057,0.357-0.094c3.081-0.935,6.133-1.965,9.229-2.461c0.44-0.195,0.947-0.269,1.338-0.179
	c2.299-0.242,4.627-0.142,7.016,0.568c5.772,1.716,10.674,5.132,16.182,7.437c4.627,1.936,9.291,2.589,13.046-1.55
	c2.476-2.729,4.54-5.954,5.477-9.556c1.487-5.712,1.195-12.657-3.128-17.177c-5.466-5.716-14.074-5.535-21.569-6.103
	c-0.469,0.01-0.938,0.01-1.404-0.009c-0.324-0.014-0.54-0.081-0.683-0.177c-7.67-0.751-15.209-1.826-22.696-3.702
	c-9.976,0.676-13.849,7.899-13.808,16.867c0.027,6.247,0.915,17.506,9.205,16.436c0.155-0.068,0.309-0.14,0.469-0.202
	C277.003,273.756,277.339,273.737,277.645,273.784z M165.304,281.466c-1.444,1.204-3.047,2.195-4.735,2.895
	c2.571,6.172,8.967,10.824,13.547,15.304c0.811,0.793-1.931,1.891-2.686,1.152c-0.278-0.272-0.583-0.559-0.904-0.855
	c-0.542,0.296-1.277,0.506-1.654,0.41c-0.742-0.19-8.719-2.339-8.825-1.093c-0.213,2.481,2.881,5.463,4.481,7.014
	c0.004,0.004,0.01,0.008,0.014,0.012c6.405-1.661,12.367-4.822,17.342-9.105c-3.367-3.08-6.691-6.201-9.943-9.387
	C169.754,285.674,167.632,283.453,165.304,281.466z M159.601,281.057c0.092,0.568,0.228,1.121,0.384,1.665
	c1.392-0.612,2.686-1.47,3.836-2.508c-0.972-0.805-1.99-1.574-3.122-2.081C158.896,277.326,159.361,279.577,159.601,281.057z
	 M159.572,297.76c2.634-0.57,6.807,0.168,9.311,0.723c-2.816-2.502-6.382-5.598-8.996-8.973c-0.409,0.395-0.729,0.835-0.955,1.314
	c0.482,0.418,0.403,1.169-0.439,1.538C158.267,294.099,158.781,296.053,159.572,297.76z M160.496,306.497
	c-1.223-1.438-2.232-3.021-2.954-4.757c-0.376-0.903-0.454-1.623-0.313-2.197c-0.045-0.031-0.083-0.067-0.108-0.113
	c-1.092-2-1.652-4.061-1.482-5.919C149.831,297.164,153.355,307.229,160.496,306.497z M209.636,356.235
	c9.072-6.283,16.601-14.146,23.001-23.287c-2.489-1.16-4.992-2.285-7.375-3.524c-9.578-4.982-19.399-10.296-27.213-17.848
	c-0.123-0.118-0.199-0.239-0.252-0.36c-4.921-4.201-9.804-8.462-14.598-12.813c-5.049,4.205-10.961,7.349-17.291,9.128
	c5.262,4.604,11.354,7.265,18.366,8.368c1.599,0.251-0.978,1.591-1.805,1.461c-6.563-1.032-14.631-3.912-20.062-8.909
	c1.947,8.79,11.095,12.534,19.273,13.918c0.198-0.11,0.43-0.197,0.714-0.246c1.983-0.34,1.12,1.568-0.338,1.818
	c2.292-0.393,1.081-1.133,2.188,1.013c0.681,1.321,1.458,2.595,2.267,3.841c2.568,3.966,5.393,7.772,8.375,11.436
	C199.441,345.827,204.346,351.246,209.636,356.235z M249.014,344.97c-3.469-5.28-8.799-8.383-14.4-11.083
	c-2.29,3.161-4.707,6.198-7.235,9.078c-4.939,5.626-10.582,10.313-16.702,14.253c3.749,3.46,7.689,6.7,11.858,9.603
	c9.315,6.484,21.128,12.658,32.87,11.471C258.111,366.455,254.861,355.137,249.014,344.97z M296.645,349.796
	c0.331-0.787,3.123-1.083,2.867-0.475c-4.082,9.706,1.23,21.555,10.007,26.881c7.635,4.633,15.81,8.393,22.929,13.95
	c5.912,4.616,12.575,10.098,16.505,16.627c0.749,1.245,0.501,2.095-0.187,2.521c2.254,4.723,9.688,5.774,14.328,6.266
	c7.023,0.745,14.324,0.738,21.354,0.104c19.125-1.726,35.939-8.974,51.001-20.625c-10.188-6.272-19.442-14.314-28.351-22.201
	c-8.049-7.127-16.429-14.375-23.338-22.65c-0.938-1.124,1.818-2.271,2.654-1.27c6.301,7.545,13.871,14.208,21.192,20.726
	c7.675,6.832,15.527,13.648,23.927,19.617c-6.221-11.134-1.486-25.679,3.775-36.902c0.055-0.117,0.152-0.224,0.276-0.318
	c1.175-1.922,2.515-3.677,3.927-5.359c-0.359,0.009-0.689-0.064-0.905-0.257c-7.56-6.748-14.424-14.266-21.825-21.188
	c-8.094-7.569-16.907-16.184-27.254-20.604c-2.961-1.265-5.748-1.77-8.373-1.18c-2.398,1.519-5.258,3.848-8.124,6.079
	c-1.396,1.624-2.782,3.259-4.424,4.611c-4.727,3.894-8.749,1.752-11.942-1.853c-3.115,6.764-11.684,6.136-18.475,5.216
	c-0.681,0.286-1.522,0.276-1.814-0.259c-1.626-2.979-3.519-5.396-5.749-7.284c-0.376-0.318-0.761-0.622-1.156-0.91
	c-2.979-2.165-6.53-3.475-10.833-3.938c-0.896-0.097-1.81-0.171-2.731-0.236c-0.513,0.209-1.083,0.369-1.329,0.345
	c-3.077-0.3-5.934-0.163-8.627,0.307c-1.628,0.375-3.483,0.856-5.431,1.458c-7.515,2.738-13.796,8.032-20.161,13.442
	c-0.119,0.141-0.269,0.268-0.439,0.373c-2.092,1.778-4.197,3.563-6.363,5.266c-7.516,5.912-15.893,9.655-24.744,13.036
	c0.982,1.467,1.92,2.962,2.803,4.485c0.337,0.509,0.66,1.033,0.959,1.581c0.057,0.104,0.088,0.205,0.106,0.305
	c5.375,9.939,8.241,20.947,5.71,32.34c0.169-0.036,0.339-0.067,0.509-0.106c13.368-3.105,26.028-12.029,36.282-20.938
	C295.207,354.468,295.664,352.128,296.645,349.796z M468.133,352.626c-7.251-1.603-14.116-4.45-19.854-8.6
	c-0.78-0.564-1.522-1.168-2.245-1.792c-2.815,3.173-5.697,6.277-7.94,10.025c-0.013,0.067-0.035,0.139-0.072,0.217
	c-6.034,12.867-11.361,30.266,0.762,41.347c0.162,0.147,0.188,0.309,0.124,0.467c2.31,1.493,4.812,2.858,7.304,3.194
	c6.39,0.861,11.127-4.643,13.227-9.975C463.833,376.345,465.14,364.261,468.133,352.626z M471.267,342.665
	c0.245-0.63,1.181-0.934,1.915-0.851c5.902-1.836,10.949-5.118,14.307-10.438c0.08-0.127,0.221-0.239,0.39-0.336
	c-0.146-0.175-0.275-0.364-0.386-0.565c-12.865,1.782-28.52-3.504-30.657-17.647c-4.676-5.167-8.003-12.296-14.015-15.656
	c-0.049,0.313-0.084,0.628-0.083,0.947c0.032,1.392,0.235,2.783,0.522,4.144c0.861,4.08,2.563,7.637,4.223,11.432
	c1.654,3.785,2.889,7.535,3.035,11.691c0.165,4.633,0.639,7.807,4.676,10.671c1.263,0.896-1.359,2.188-2.27,1.542
	c-0.719-0.51-1.335-1.037-1.895-1.58c-1.03,1.5-2.148,2.912-3.313,4.277c5.904,5.155,13.316,8.393,20.972,10.238
	C469.426,347.877,470.263,345.248,471.267,342.665z M500.32,322.041c7.116-8.374,8.039-22.504-0.25-30.351
	c-4.912-4.65-11.572-7.73-18.214-9.03c-13.455,1.027-23.464,13.278-22.703,26.159c0.01-0.002,0.018-0.005,0.027-0.007
	c7.778-1.537,13.093-8.921,20.221-12.086c2.898-1.288,9.466-2.47,11.648,0.805c1.886,2.831-2.632,7.216-7.344,10.931
	c2.497-0.424,5.827-0.314,5.871,2.913c0.005,0.317-0.021,0.638-0.053,0.958c0.166-0.056,0.335-0.102,0.496-0.126
	c2.245-0.348,6.14-0.657,6.731,2.349c0.063,0.322,0.093,0.647,0.096,0.976C499.525,317.141,500.506,319.544,500.32,322.041z
	 M496.672,325.409c1.064-2.414,1.172-5.042-0.41-7.033c-0.494,1.244-1.238,2.412-1.992,3.361c-1.271,1.601-2.863,2.938-4.718,3.728
	c0.09,0.096,0.144,0.217,0.139,0.375c-0.016,0.55-0.013,1.636,0.189,2.634C492.357,327.847,494.672,326.832,496.672,325.409z
	 M491.868,329.566c-0.472,0.134-0.952,0.255-1.437,0.368c0.287,0.424,0.681,0.699,1.227,0.68c1.041-0.036,2.178-1.114,2.986-2.055
	C493.751,328.952,492.828,329.293,491.868,329.566z M460.583,315.571c0.112,0.303,0.22,0.607,0.347,0.909
	c3.874,9.239,15.782,13.879,26.049,12.541c-0.187-0.909-0.207-1.895-0.181-2.799c0.001-0.015,0.008-0.028,0.009-0.042
	c-2.562,0.222-4.093-1.286-4.999-3.426c-2.063,1.056-4.376,1.566-6.397,0.62c-4.035-1.888-0.73-7.339,1.31-9.29
	c0.564-0.539,3.394-0.801,2.656-0.096c-1.626,1.554-4.561,5.614-2.051,7.777c1.242,1.071,2.804,0.581,4.179-0.383
	c0.057-0.055,0.13-0.109,0.221-0.164c1.002-0.75,1.888-1.727,2.447-2.496c1.734-2.386,4.928-10.389-1.173-8.917
	c-0.476,0.115-0.831,0.104-1.078,0.028c-2.886,2.172-5.546,3.98-6.503,4.892c-1.086,1.034-3.356-0.03-1.938-1.381
	c2.344-2.231,5.073-4.062,7.575-6.108c1.503-1.23,8.188-5.803,7.348-8.297c-0.906-2.69-7.349-0.71-8.822,0.056
	c-2.63,1.367-4.979,3.099-7.324,4.896c-3.819,2.927-7.697,6.018-12.525,6.972c-0.128,0.025-0.247,0.036-0.362,0.038
	c0.043,0.285,0.094,0.57,0.147,0.855c0.729,0.747,1.476,1.465,2.272,2.107C462.652,314.561,461.586,315.394,460.583,315.571z
	 M488.059,325.159c1.633-0.464,3.268-2.574,4.167-4.011c0.854-1.364,1.733-3.104,1.734-4.796c-0.001-0.024-0.001-0.048,0.004-0.072
	c-0.004-0.264-0.026-0.526-0.077-0.786c-0.424-2.152-2.502-2.652-4.44-2.352c-0.017,0.002-0.027,0.003-0.043,0.005
	c-0.469,2.543-1.919,5.06-3.701,6.791c-0.395,0.383-0.844,0.774-1.326,1.154C484.866,322.546,486.288,325.661,488.059,325.159z
	 M527.015,323.542c6.113-19.433,1.666-39.331-15.407-51.237c-8.824-6.153-19.467-10.681-30.082-12.665
	c-26.37,1.313-47.511,25.139-45.93,51.369c0.601,9.967,3.045,20.386,10.369,27.664c0.086,0.086,0.178,0.164,0.266,0.249
	c1.188-1.471,2.307-3.01,3.303-4.674c-1.168-1.729-1.757-3.728-1.85-6.277c-0.223-6.089-1.969-10.914-4.442-16.429
	c-1.048-2.337-6.574-14.34-1.829-16.261c3.745-1.515,7.256,3.338,9.334,5.729c1.962,2.259,3.799,4.847,5.757,7.299
	c0.051-14.47,10.889-26.547,26.064-27.471c0.218-0.013,0.396,0,0.55,0.028c0.05,0.002,0.101,0.003,0.146,0.011
	c8.963,1.674,19.895,6.776,23.733,15.565c4.499,10.298,0.815,22.847-7.813,29.433c-0.687,1.335-1.634,2.585-2.764,3.624
	c-1.656,1.522-4.273,3.15-6.656,2.633c-3.792,5.616-9.445,9.115-15.833,11.134c-0.995,2.587-1.86,5.204-2.637,7.84
	c1.554,0.31,3.11,0.572,4.661,0.777C497.719,354.769,520.017,345.79,527.015,323.542z M155.918,255.885
	c-0.568,3.351-1.136,6.701-1.705,10.052c-0.119,0.704,2.739,0.202,2.859-0.506c0.569-3.35,1.137-6.701,1.705-10.052
	C158.896,254.675,156.038,255.177,155.918,255.885z M133.141,170.263c0.231-3.647,3.237-5.966,6.758-6.089
	c0.215-0.007,0.396,0.017,0.554,0.059c0.353-0.438,0.977-0.764,1.618-0.646c3.461,0.638,6.703,3.38,5.672,7.263
	c-0.938,3.533-3.953,5.738-7.596,5.789C136.553,176.69,132.893,174.17,133.141,170.263z M140.828,174.387
	c2.151-0.174,3.932-1.842,4.087-4.051c0.175-2.491-1.442-4.092-3.817-4.529c-0.059-0.011-0.105-0.028-0.159-0.042
	c-0.248,0.355-0.684,0.636-1.265,0.656C134.207,166.611,135.552,174.813,140.828,174.387z M187.007,209.394
	c0.167-2.626,2.43-4.296,4.946-4.383c0.068-0.002,0.127,0.004,0.189,0.007c0.36-0.293,0.851-0.476,1.354-0.383
	c2.403,0.443,4.755,2.351,4.031,5.076c-0.675,2.542-2.862,4.151-5.492,4.188C189.478,213.935,186.828,212.203,187.007,209.394z
	 M192.558,211.648c1.157-0.093,2.021-1.045,2.103-2.207c0.094-1.342-0.701-2.239-1.948-2.539c-0.25,0.201-0.582,0.341-0.983,0.355
	C188.854,207.357,189.79,211.872,192.558,211.648z M201.119,209.394c0.167-2.626,2.43-4.296,4.945-4.383
	c0.069-0.002,0.128,0.004,0.191,0.007c0.359-0.293,0.85-0.476,1.354-0.383c2.403,0.443,4.754,2.351,4.031,5.076
	c-0.676,2.542-2.863,4.151-5.492,4.188C203.59,213.935,200.94,212.203,201.119,209.394z M206.67,211.648
	c1.156-0.093,2.02-1.045,2.102-2.207c0.095-1.342-0.7-2.239-1.947-2.539c-0.25,0.201-0.581,0.341-0.982,0.355
	C202.967,207.357,203.902,211.872,206.67,211.648z M215.23,209.394c0.168-2.626,2.43-4.296,4.945-4.383
	c0.069-0.002,0.128,0.004,0.191,0.007c0.359-0.293,0.85-0.476,1.354-0.383c2.403,0.443,4.756,2.35,4.031,5.076
	c-0.675,2.542-2.862,4.151-5.492,4.188C217.701,213.935,215.053,212.203,215.23,209.394z M220.781,211.648
	c1.156-0.093,2.021-1.045,2.103-2.207c0.095-1.342-0.701-2.239-1.948-2.539c-0.25,0.201-0.581,0.341-0.982,0.355
	C217.078,207.357,218.014,211.872,220.781,211.648z M229.343,209.394c0.167-2.626,2.429-4.296,4.944-4.383
	c0.069-0.002,0.128,0.004,0.191,0.007c0.359-0.293,0.85-0.476,1.354-0.383c2.403,0.443,4.756,2.35,4.031,5.076
	c-0.675,2.542-2.862,4.151-5.492,4.188C231.813,213.935,229.164,212.202,229.343,209.394z M234.893,211.648
	c1.156-0.093,2.021-1.045,2.103-2.207c0.095-1.342-0.701-2.239-1.948-2.539c-0.25,0.201-0.581,0.341-0.982,0.355
	C231.19,207.357,232.125,211.872,234.893,211.648z M243.455,209.394c0.167-2.626,2.43-4.296,4.945-4.383
	c0.068-0.002,0.127,0.004,0.189,0.007c0.36-0.293,0.851-0.476,1.354-0.383c2.403,0.443,4.755,2.351,4.031,5.076
	c-0.675,2.542-2.862,4.151-5.491,4.188C245.926,213.935,243.276,212.203,243.455,209.394z M249.006,211.648
	c1.156-0.093,2.02-1.045,2.102-2.207c0.095-1.342-0.701-2.239-1.947-2.539c-0.25,0.201-0.581,0.341-0.982,0.354
	C245.303,207.357,246.237,211.872,249.006,211.648z M407.747,221.975c0.167-2.626,2.43-4.295,4.946-4.383
	c0.068-0.002,0.127,0.004,0.189,0.007c0.359-0.293,0.85-0.476,1.354-0.383c2.403,0.443,4.756,2.35,4.031,5.076
	c-0.675,2.541-2.861,4.15-5.491,4.188C410.218,226.515,407.568,224.784,407.747,221.975z M413.298,224.229
	c1.156-0.093,2.02-1.045,2.102-2.207c0.095-1.342-0.701-2.239-1.947-2.539c-0.25,0.201-0.582,0.341-0.983,0.354
	C409.594,219.938,410.529,224.452,413.298,224.229z M286.542,381.377c-0.675,2.542-2.862,4.15-5.491,4.188
	c-2.559,0.036-5.209-1.697-5.03-4.505c0.167-2.626,2.431-4.296,4.946-4.383c0.068-0.002,0.127,0.004,0.189,0.007
	c0.36-0.293,0.85-0.476,1.354-0.383C284.913,376.745,287.266,378.651,286.542,381.377z M283.674,381.107
	c0.094-1.342-0.701-2.238-1.947-2.539c-0.25,0.201-0.582,0.34-0.982,0.354c-2.876,0.101-1.94,4.616,0.828,4.392
	C282.729,383.221,283.592,382.27,283.674,381.107z M295.775,399.06c-0.675,2.542-2.863,4.15-5.492,4.188
	c-2.559,0.036-5.207-1.697-5.028-4.505c0.167-2.626,2.429-4.296,4.944-4.383c0.069-0.002,0.128,0.004,0.191,0.007
	c0.359-0.293,0.85-0.476,1.354-0.383C294.147,394.427,296.5,396.333,295.775,399.06z M292.907,398.79
	c0.095-1.342-0.701-2.239-1.948-2.539c-0.25,0.201-0.581,0.341-0.982,0.355c-2.873,0.101-1.938,4.615,0.828,4.391
	C291.961,400.903,292.825,399.952,292.907,398.79z M311.731,409.454c-0.675,2.542-2.862,4.151-5.491,4.188
	c-2.559,0.036-5.208-1.696-5.029-4.505c0.167-2.626,2.43-4.295,4.945-4.383c0.068-0.002,0.127,0.004,0.188,0.007
	c0.36-0.294,0.851-0.477,1.354-0.384C310.103,404.821,312.455,406.728,311.731,409.454z M308.863,409.184
	c0.094-1.342-0.701-2.238-1.947-2.539c-0.25,0.201-0.581,0.341-0.982,0.355c-2.875,0.101-1.94,4.615,0.828,4.391
	C307.918,411.297,308.781,410.346,308.863,409.184z M327.579,420.086c-0.675,2.542-2.862,4.151-5.491,4.188
	c-2.559,0.036-5.209-1.696-5.03-4.505c0.167-2.626,2.431-4.295,4.946-4.383c0.068-0.002,0.127,0.004,0.189,0.007
	c0.359-0.294,0.85-0.477,1.354-0.384C325.951,415.453,328.303,417.36,327.579,420.086z M324.711,419.816
	c0.095-1.342-0.701-2.238-1.946-2.539c-0.251,0.201-0.582,0.341-0.983,0.355c-2.876,0.101-1.94,4.615,0.828,4.391
	C323.766,421.93,324.629,420.978,324.711,419.816z M348.316,427.118c-0.675,2.541-2.862,4.15-5.491,4.188
	c-2.559,0.036-5.208-1.697-5.03-4.505c0.167-2.626,2.431-4.296,4.947-4.383c0.068-0.002,0.127,0.004,0.189,0.007
	c0.36-0.293,0.85-0.476,1.354-0.383C346.688,422.485,349.04,424.393,348.316,427.118z M345.447,426.848
	c0.095-1.342-0.7-2.239-1.947-2.539c-0.25,0.201-0.581,0.34-0.982,0.354c-2.875,0.101-1.939,4.616,0.829,4.392
	C344.503,428.962,345.366,428.01,345.447,426.848z M366.609,430.634c-0.676,2.542-2.863,4.151-5.492,4.188
	c-2.559,0.036-5.208-1.697-5.029-4.505c0.167-2.626,2.43-4.296,4.945-4.383c0.069-0.002,0.128,0.004,0.191,0.007
	c0.359-0.293,0.85-0.476,1.354-0.383C364.981,426.001,367.332,427.908,366.609,430.634z M363.74,430.364
	c0.095-1.342-0.7-2.239-1.947-2.54c-0.25,0.201-0.581,0.341-0.982,0.355c-2.875,0.101-1.94,4.616,0.828,4.392
	C362.795,432.478,363.658,431.526,363.74,430.364z M384.902,430.634c-0.675,2.542-2.862,4.151-5.491,4.188
	c-2.559,0.036-5.208-1.697-5.03-4.505c0.167-2.627,2.431-4.296,4.947-4.383c0.068-0.002,0.126,0.004,0.188,0.007
	c0.36-0.293,0.851-0.476,1.354-0.383C383.273,426.001,385.625,427.908,384.902,430.634z M382.033,430.364
	c0.095-1.342-0.701-2.238-1.946-2.539c-0.251,0.201-0.582,0.341-0.983,0.354c-2.876,0.101-1.939,4.616,0.829,4.392
	C381.089,432.478,381.951,431.525,382.033,430.364z M402.135,430.634c-0.676,2.542-2.863,4.151-5.492,4.188
	c-2.559,0.036-5.208-1.697-5.029-4.505c0.167-2.626,2.43-4.296,4.945-4.383c0.069-0.002,0.128,0.004,0.191,0.007
	c0.359-0.293,0.85-0.476,1.354-0.383C400.507,426.001,402.857,427.908,402.135,430.634z M399.266,430.364
	c0.095-1.342-0.7-2.239-1.947-2.54c-0.25,0.201-0.581,0.341-0.982,0.355c-2.875,0.101-1.939,4.616,0.828,4.392
	C398.32,432.478,399.184,431.526,399.266,430.364z M418.267,423.602c-0.675,2.542-2.862,4.151-5.491,4.188
	c-2.559,0.036-5.208-1.697-5.029-4.505c0.167-2.626,2.43-4.296,4.945-4.383c0.068-0.002,0.127,0.004,0.19,0.007
	c0.359-0.293,0.85-0.476,1.354-0.383C416.639,418.969,418.99,420.876,418.267,423.602z M415.398,423.333
	c0.095-1.342-0.701-2.239-1.947-2.54c-0.25,0.201-0.582,0.341-0.982,0.354c-2.876,0.101-1.94,4.616,0.828,4.392
	C414.453,425.446,415.316,424.494,415.398,423.333z M434.981,412.97c-0.675,2.542-2.862,4.151-5.492,4.188
	c-2.559,0.036-5.208-1.696-5.029-4.505c0.167-2.626,2.43-4.295,4.946-4.383c0.068-0.002,0.127,0.004,0.189,0.007
	c0.359-0.294,0.85-0.477,1.354-0.384C433.354,408.337,435.705,410.244,434.981,412.97z M432.113,412.7
	c0.094-1.342-0.701-2.239-1.947-2.539c-0.25,0.201-0.582,0.341-0.984,0.355c-2.874,0.101-1.938,4.615,0.829,4.391
	C431.167,414.813,432.031,413.862,432.113,412.7z M446.491,405.938c-0.675,2.542-2.862,4.15-5.491,4.188
	c-2.559,0.036-5.208-1.697-5.029-4.505c0.167-2.626,2.43-4.296,4.945-4.383c0.068-0.002,0.127,0.004,0.189,0.007
	c0.36-0.293,0.851-0.476,1.354-0.383C444.863,401.305,447.215,403.212,446.491,405.938z M443.623,405.668
	c0.095-1.342-0.701-2.238-1.947-2.539c-0.25,0.201-0.581,0.34-0.982,0.354c-2.875,0.101-1.94,4.615,0.828,4.391
	C442.678,407.782,443.541,406.83,443.623,405.668z M421.858,221.975c0.167-2.626,2.431-4.295,4.946-4.383
	c0.068-0.002,0.127,0.004,0.189,0.007c0.359-0.293,0.85-0.476,1.354-0.383c2.403,0.443,4.756,2.35,4.032,5.076
	c-0.675,2.542-2.862,4.15-5.491,4.188C424.33,226.515,421.68,224.784,421.858,221.975z M427.41,224.229
	c1.156-0.093,2.02-1.044,2.102-2.207c0.094-1.342-0.701-2.238-1.947-2.539c-0.25,0.201-0.581,0.341-0.982,0.354
	C423.706,219.938,424.642,224.452,427.41,224.229z M435.971,221.975c0.167-2.626,2.43-4.295,4.945-4.383
	c0.068-0.002,0.127,0.004,0.189,0.007c0.36-0.293,0.851-0.476,1.354-0.383c2.403,0.443,4.755,2.35,4.031,5.076
	c-0.675,2.541-2.862,4.15-5.491,4.188C438.441,226.515,435.792,224.784,435.971,221.975z M441.521,224.229
	c1.156-0.093,2.02-1.044,2.102-2.207c0.095-1.342-0.701-2.239-1.947-2.539c-0.25,0.201-0.581,0.341-0.982,0.354
	C437.818,219.938,438.753,224.452,441.521,224.229z M450.082,221.975c0.167-2.626,2.43-4.295,4.945-4.383
	c0.068-0.002,0.127,0.004,0.189,0.007c0.36-0.293,0.851-0.476,1.354-0.383c2.403,0.443,4.755,2.35,4.031,5.076
	c-0.675,2.541-2.862,4.15-5.491,4.188C452.553,226.515,449.904,224.783,450.082,221.975z M455.633,224.229
	c1.156-0.093,2.02-1.044,2.102-2.207c0.095-1.342-0.701-2.239-1.947-2.539c-0.25,0.201-0.581,0.341-0.982,0.354
	C451.93,219.938,452.865,224.452,455.633,224.229z M464.194,221.975c0.167-2.626,2.43-4.295,4.946-4.383
	c0.068-0.002,0.127,0.004,0.189,0.007c0.359-0.293,0.85-0.476,1.354-0.383c2.403,0.443,4.755,2.35,4.031,5.076
	c-0.674,2.541-2.861,4.15-5.491,4.188C466.665,226.515,464.016,224.783,464.194,221.975z M469.745,224.229
	c1.157-0.093,2.02-1.044,2.102-2.207c0.094-1.342-0.701-2.239-1.947-2.539c-0.25,0.201-0.582,0.341-0.983,0.354
	C466.041,219.938,466.978,224.452,469.745,224.229z M35.881,328.724c-0.675,2.541-2.862,4.15-5.491,4.188
	c-2.559,0.036-5.208-1.697-5.029-4.505c0.167-2.626,2.43-4.296,4.946-4.383c0.068-0.002,0.127,0.004,0.189,0.007
	c0.36-0.293,0.85-0.476,1.354-0.383C34.253,324.091,36.605,325.998,35.881,328.724z M33.013,328.454
	c0.095-1.342-0.701-2.239-1.948-2.539c-0.25,0.201-0.581,0.341-0.982,0.354c-2.875,0.101-1.939,4.616,0.829,4.392
	C32.067,330.568,32.931,329.616,33.013,328.454z M49.993,328.724c-0.675,2.542-2.862,4.15-5.491,4.188
	c-2.559,0.036-5.209-1.697-5.03-4.505c0.167-2.626,2.431-4.296,4.946-4.383c0.068-0.002,0.127,0.004,0.189,0.007
	c0.36-0.293,0.85-0.476,1.354-0.383C48.364,324.091,50.717,325.998,49.993,328.724z M47.125,328.454
	c0.094-1.342-0.701-2.238-1.947-2.539c-0.25,0.201-0.582,0.34-0.982,0.354c-2.876,0.101-1.94,4.616,0.828,4.392
	C46.18,330.568,47.043,329.616,47.125,328.454z M67.695,328.407c0.167-2.626,2.43-4.296,4.945-4.383
	c0.069-0.002,0.129,0.004,0.191,0.007c0.36-0.293,0.85-0.476,1.354-0.383c2.403,0.443,4.755,2.351,4.031,5.076
	c-0.676,2.542-2.863,4.15-5.492,4.188C70.166,332.948,67.517,331.215,67.695,328.407z M73.246,330.661
	c1.156-0.093,2.02-1.045,2.102-2.207c0.095-1.342-0.701-2.239-1.947-2.539c-0.25,0.201-0.581,0.341-0.982,0.354
	C69.543,326.37,70.478,330.885,73.246,330.661z M88.297,323.648c2.403,0.443,4.755,2.351,4.031,5.076
	c-0.674,2.542-2.861,4.15-5.491,4.188c-2.559,0.036-5.208-1.697-5.03-4.505c0.167-2.626,2.431-4.296,4.947-4.383
	c0.068-0.002,0.127,0.004,0.189,0.007C87.304,323.737,87.793,323.555,88.297,323.648z M87.512,325.915
	c-0.25,0.201-0.581,0.341-0.982,0.354c-2.875,0.101-1.939,4.616,0.829,4.392c1.156-0.093,2.02-1.045,2.102-2.207
	C89.554,327.112,88.759,326.215,87.512,325.915z M69.696,275.693c0.966-0.172,2.851-0.548,3.422-1.487
	c0.493-0.812-2.098-0.426-2.275-0.395c-2.965,0.527-6.015,0.453-9.015,0.453c-1.371,0-2.909,0.419-4.099,1.098
	c-0.943,0.539-0.79,1.078,0.288,1.078C61.935,276.438,65.83,276.38,69.696,275.693z M99.697,281.5
	c-0.969-0.53-2.779,0.093-3.707,0.423c0.377-0.134-0.189,0.003-0.373,0.013c-0.643,0.034-1.287,0.027-1.93,0.027
	c-1.371,0.001-2.908,0.419-4.098,1.098c-0.943,0.539-0.79,1.078,0.289,1.078c2.752-0.002,5.433-0.231,8.045-1.159
	C98.096,282.919,100.529,281.956,99.697,281.5z M93.813,274.902c1.278-0.139,2.868-0.502,3.892-1.336
	c1.016-0.827-0.908-0.808-1.319-0.764c-5.434,0.588-10.901,0.561-16.36,0.562c-1.371,0-2.908,0.419-4.098,1.098
	c-0.943,0.539-0.79,1.078,0.289,1.078C82.089,275.539,87.968,275.535,93.813,274.902z M58.018,295.169
	c3.917-0.001,7.813-0.06,11.679-0.747c0.966-0.172,2.851-0.548,3.422-1.487c0.493-0.812-2.098-0.426-2.275-0.395
	c-2.965,0.527-6.015,0.453-9.015,0.453c-1.371,0-2.909,0.419-4.099,1.098C56.786,294.631,56.939,295.169,58.018,295.169z
	 M97.705,292.296c1.016-0.827-0.908-0.808-1.319-0.764c-5.434,0.589-10.901,0.561-16.36,0.562c-1.371,0-2.908,0.419-4.098,1.098
	c-0.943,0.539-0.79,1.078,0.289,1.078c5.872-0.001,11.751-0.005,17.597-0.638C95.092,293.493,96.682,293.13,97.705,292.296z
	 M57.422,286.116c8.202-0.039,16.405-0.083,24.586-0.749c1.374-0.112,6.367-2.408,2.572-2.1c-7.766,0.632-15.563,0.636-23.35,0.673
	C60.133,283.945,54.675,286.128,57.422,286.116z M511.635,371.686c-2.964,0.527-6.014,0.453-9.014,0.453
	c-1.371,0-2.908,0.419-4.098,1.098c-0.943,0.539-0.79,1.078,0.289,1.078c3.915-0.001,7.811-0.06,11.676-0.747
	c0.966-0.172,2.851-0.548,3.422-1.487C514.403,371.269,511.813,371.654,511.635,371.686z M540.49,379.375
	c-0.969-0.53-2.779,0.094-3.707,0.423c0.377-0.134-0.189,0.003-0.373,0.013c-0.642,0.034-1.286,0.027-1.928,0.027
	c-1.372,0.001-2.909,0.419-4.099,1.098c-0.943,0.539-0.79,1.078,0.288,1.078c2.752-0.002,5.433-0.231,8.045-1.159
	C538.889,380.794,541.322,379.831,540.49,379.375z M516.722,372.337c-0.943,0.539-0.79,1.078,0.288,1.078
	c5.873-0.001,11.752-0.005,17.598-0.638c1.278-0.139,2.868-0.502,3.892-1.336c1.015-0.827-0.908-0.808-1.319-0.764
	c-5.434,0.589-10.901,0.561-16.359,0.562C519.449,371.24,517.911,371.658,516.722,372.337z M511.635,390.416
	c-2.964,0.527-6.014,0.453-9.014,0.453c-1.371,0-2.908,0.419-4.098,1.098c-0.943,0.539-0.79,1.078,0.289,1.078
	c3.915-0.001,7.811-0.06,11.676-0.747c0.966-0.172,2.851-0.548,3.422-1.487C514.403,389.998,511.813,390.384,511.635,390.416z
	 M537.18,389.407c-5.434,0.588-10.901,0.561-16.359,0.562c-1.371,0-2.909,0.419-4.099,1.098c-0.943,0.539-0.79,1.078,0.288,1.078
	c5.873-0.001,11.752-0.005,17.598-0.638c1.278-0.139,2.868-0.502,3.892-1.336C539.514,389.344,537.591,389.363,537.18,389.407z
	 M522.8,383.242c1.374-0.112,6.368-2.408,2.572-2.1c-7.766,0.632-15.562,0.637-23.349,0.673c-1.098,0.005-6.556,2.188-3.809,2.176
	C506.417,383.952,514.619,383.907,522.8,383.242z M165.226,368.226c0.031-1.778,0.416-3.644,1.181-5.257
	c0.235-0.498-1.015-0.345-1.17-0.318c-0.496,0.085-1.445,0.291-1.693,0.813c-0.804,1.697-1.182,3.668-1.216,5.539
	C162.318,369.51,165.21,369.1,165.226,368.226z M170.629,355.863c0.079-2.104,1.124-4.042,1.799-5.998
	c0.387-1.118-2.545-0.749-2.91,0.312c-0.676,1.956-1.721,3.894-1.799,5.998C167.669,357.497,170.589,356.948,170.629,355.863z
	 M176.508,344.007c1.125-1.656,2.473-3.142,3.598-4.798c0.375-0.551-0.316-0.73-0.751-0.725c-0.602,0.007-1.554,0.216-1.921,0.758
	c-1.125,1.656-2.474,3.143-3.6,4.798c-0.374,0.551,0.317,0.73,0.752,0.725C175.188,344.758,176.14,344.549,176.508,344.007z
	 M209.647,307.571c-1.483,0.783-2.685,2.023-3.858,3.197c-0.433,0.433-0.332,0.943,0.291,1.086c0.66,0.152,1.563-0.062,2.049-0.549
	c1.024-1.025,2.042-2.117,3.337-2.8c0.439-0.232,0.834-0.885,0.238-1.19C211.054,306.982,210.24,307.259,209.647,307.571z
	 M221.357,300.163c-1.571,0.559-2.751,1.641-4.199,2.399c-0.386,0.202-1.213,0.733-0.744,1.268c0.427,0.488,1.431,0.352,1.934,0.088
	c1.438-0.753,2.656-1.851,4.199-2.399c0.423-0.15,1.184-0.766,0.744-1.268C222.827,299.72,221.908,299.967,221.357,300.163z
	 M229.725,293.653c2.132-0.735,4.338-1.792,5.986-3.36c0.439-0.418,0.335-0.913-0.279-1.043c-0.665-0.141-1.551,0.076-2.049,0.549
	c-1.329,1.263-3.095,2.046-4.809,2.637c-0.369,0.127-1.215,0.707-0.77,1.179C228.271,294.109,229.193,293.836,229.725,293.653z
	 M243.225,286.211c1.37-0.665,2.827-1.132,4.197-1.799c0.375-0.182,0.898-0.773,0.282-1.027c-0.653-0.27-1.452,0.01-2.044,0.298
	c-1.369,0.667-2.826,1.133-4.197,1.799c-0.375,0.182-0.898,0.773-0.282,1.027C241.834,286.779,242.633,286.5,243.225,286.211z
	 M262.916,280.522c1.766-0.549,3.629-0.65,5.396-1.2c0.375-0.117,1.427-0.471,1.27-1.06c-0.152-0.569-1.256-0.4-1.629-0.284
	c-1.766,0.549-3.629,0.65-5.396,1.2c-0.375,0.117-1.427,0.471-1.27,1.06C261.439,280.807,262.543,280.638,262.916,280.522z
	 M131.92,200.338c-1.243,0-3.023,1.888-1.063,1.888c7.397,0,14.795,0,22.191,0c1.243,0,3.023-1.888,1.063-1.888
	C146.714,200.338,139.316,200.338,131.92,200.338z M150.846,195.293c0.628,0,3.31-1.217,1.871-1.217c-5.998,0-11.996,0-17.994,0
	c-0.627,0-3.309,1.217-1.869,1.217C138.851,195.293,144.849,195.293,150.846,195.293z M145.645,188.097
	c-0.422,0.543,0.356,0.743,0.756,0.743c1.999,0,3.999,0,5.998,0c0.641,0,1.508-0.23,1.92-0.763c0.422-0.543-0.356-0.743-0.756-0.743
	c-1.999,0-3.999,0-5.998,0C146.924,187.334,146.057,187.565,145.645,188.097z M403.996,285.459c1.985,0.648,4.014,1.15,5.999,1.799
	c0.954,0.312,3.405-1.085,1.762-1.622c-1.985-0.649-4.015-1.151-5.999-1.799C404.803,283.525,402.354,284.922,403.996,285.459z
	 M417.192,292.061c1.407,0.477,2.667,1.118,3.735,2.162c0.76,0.742,3.502-0.358,2.686-1.155c-1.339-1.307-2.908-2.042-4.661-2.637
	C417.992,290.104,415.551,291.503,417.192,292.061z M427.795,297.804c-0.52-0.531-1.322-0.528-1.969-0.217
	c-0.445,0.214-1.205,0.962-0.684,1.494c1.046,1.069,1.857,2.475,3.209,3.197c0.662,0.354,1.472,0.281,2.078-0.174
	c0.438-0.329,0.811-1.149,0.154-1.5C429.405,299.974,428.711,298.739,427.795,297.804z M347.185,189.793c9.396,0,18.793,0,28.189,0
	c1.689,0,2.194-2.213,0.232-2.213c-9.396,0-18.793,0-28.189,0C345.728,187.58,345.223,189.793,347.185,189.793z M342.512,197.804
	c2,0,4,0,5.999,0c0.634,0,1.504-0.237,1.924-0.749c0.438-0.532-0.372-0.692-0.742-0.692c-2,0-3.999,0-5.999,0
	c-0.634,0-1.504,0.237-1.924,0.749C341.332,197.644,342.142,197.804,342.512,197.804z M373.436,196.512c-4.998,0-9.996,0-14.994,0
	c-0.581,0-3.293,1.144-1.889,1.144c4.997,0,9.995,0,14.992,0C372.127,197.655,374.838,196.512,373.436,196.512z M359.229,203.338
	c-1.242,0-3.023,1.886-1.063,1.886c3.998,0,7.997,0,11.995,0c1.242,0,3.023-1.886,1.063-1.886
	C367.225,203.338,363.227,203.338,359.229,203.338z M367.081,182.73c3.998,0,7.996,0,11.994,0c0.849,0,3.159-1.282,1.225-1.282
	c-3.998,0-7.996,0-11.994,0C367.457,181.448,365.146,182.73,367.081,182.73z" fill="#0984E3"></path>
</svg>